<svg xmlns="http://www.w3.org/2000/svg" viewBox="0 0 720 200" role="img" aria-label="Guardrails pattern">
  <rect width="720" height="200" fill="#0f172a"/>
  <text x="360" y="28" fill="#e2e8f0" font-family="system-ui,sans-serif" font-size="16" text-anchor="middle">Guardrails &amp; Safety Envelope</text>
  <rect x="40" y="75" width="110" height="50" rx="10" fill="#334155"/>
  <text x="95" y="105" fill="#f8fafc" font-family="system-ui,sans-serif" font-size="11" text-anchor="middle">User Input</text>
  <polygon points="158,100 178,100 178,90 198,100 178,110 178,100" fill="#94a3b8"/>
  <rect x="208" y="75" width="110" height="50" rx="10" fill="#b45309" stroke="#fbbf24"/>
  <text x="263" y="98" fill="#fef3c7" font-family="system-ui,sans-serif" font-size="11" text-anchor="middle">Input Filter</text>
  <text x="263" y="114" fill="#fde68a" font-family="system-ui,sans-serif" font-size="9" text-anchor="middle">injection / PII</text>
  <polygon points="326,100 346,100 346,90 366,100 346,110 346,100" fill="#94a3b8"/>
  <rect x="376" y="75" width="110" height="50" rx="10" fill="#2563eb"/>
  <text x="431" y="105" fill="#fff" font-family="system-ui,sans-serif" font-size="11" text-anchor="middle">LLM Core</text>
  <polygon points="494,100 514,100 514,90 534,100 514,110 514,100" fill="#94a3b8"/>
  <rect x="544" y="75" width="110" height="50" rx="10" fill="#b45309" stroke="#fbbf24"/>
  <text x="599" y="98" fill="#fef3c7" font-family="system-ui,sans-serif" font-size="11" text-anchor="middle">Output Filter</text>
  <text x="599" y="114" fill="#fde68a" font-family="system-ui,sans-serif" font-size="9" text-anchor="middle">secrets / policy</text>
  <rect x="300" y="145" width="120" height="36" rx="8" fill="#1e293b" stroke="#22c55e"/>
  <text x="360" y="168" fill="#bbf7d0" font-family="system-ui,sans-serif" font-size="11" text-anchor="middle">Safe Response</text>
</svg>
